<svg width="76" height="76" viewBox="0 0 76 76" fill="none" xmlns="http://www.w3.org/2000/svg">
<path fill-rule="evenodd" clip-rule="evenodd" d="M28.5 71.1711H47.5V55.9395C53.1683 52.6461 57 46.5345 57 39.5045C57 29.0228 48.4817 20.5045 38 20.5045C27.5183 20.5045 19 29.0228 19 39.5045C19 46.5345 22.8317 52.6461 28.5 55.9395V71.1711ZM41.1667 64.8378V52.2978L44.3333 50.4611C48.26 48.1811 50.6667 44.0011 50.6667 39.5045C50.6667 32.5061 44.9983 26.8378 38 26.8378C31.0017 26.8378 25.3333 32.5061 25.3333 39.5045C25.3333 44.0011 27.7717 48.1811 31.6667 50.4611L34.8333 52.2978V64.8378H41.1667ZM12.6667 42.8296H3.16666V36.4962H12.6667V42.8296ZM11.2417 17.2112L15.7067 12.7462L21.375 18.4462L16.91 22.9112L11.2417 17.2112ZM41.1667 14.3296V4.82959H34.8333V14.3296H41.1667ZM63.3333 42.8296H72.8333V36.4962H63.3333V42.8296ZM60.2617 12.7145L54.5933 18.4145L59.0266 22.8478L64.7267 17.1795L60.2617 12.7145Z" fill="#333333"/>
</svg>
